<svg xmlns="http://www.w3.org/2000/svg" width="800" height="280" viewBox="0 0 800 280">
  <defs>
    <linearGradient id="bg" x1="0%" y1="0%" x2="100%" y2="100%">
      <stop offset="0%" style="stop-color:#2E5E3E;stop-opacity:1"/>
      <stop offset="100%" style="stop-color:#1E3E2E;stop-opacity:1"/>
    </linearGradient>
  </defs>
  <rect width="800" height="280" fill="url(#bg)" rx="0"/>
  <circle cx="700" cy="40"  r="90"  fill="white" opacity="0.06"/>
  <circle cx="120" cy="240" r="120" fill="white" opacity="0.05"/>
  <circle cx="400" cy="140" r="200" fill="white" opacity="0.03"/>
  <circle cx="50" cy="50" r="2" fill="white" opacity="0.12"/><circle cx="50" cy="110" r="2" fill="white" opacity="0.12"/><circle cx="50" cy="170" r="2" fill="white" opacity="0.12"/><circle cx="50" cy="230" r="2" fill="white" opacity="0.12"/><circle cx="150" cy="50" r="2" fill="white" opacity="0.12"/><circle cx="150" cy="110" r="2" fill="white" opacity="0.12"/><circle cx="150" cy="170" r="2" fill="white" opacity="0.12"/><circle cx="150" cy="230" r="2" fill="white" opacity="0.12"/><circle cx="250" cy="50" r="2" fill="white" opacity="0.12"/><circle cx="250" cy="110" r="2" fill="white" opacity="0.12"/><circle cx="250" cy="170" r="2" fill="white" opacity="0.12"/><circle cx="250" cy="230" r="2" fill="white" opacity="0.12"/><circle cx="350" cy="50" r="2" fill="white" opacity="0.12"/><circle cx="350" cy="110" r="2" fill="white" opacity="0.12"/><circle cx="350" cy="170" r="2" fill="white" opacity="0.12"/><circle cx="350" cy="230" r="2" fill="white" opacity="0.12"/><circle cx="450" cy="50" r="2" fill="white" opacity="0.12"/><circle cx="450" cy="110" r="2" fill="white" opacity="0.12"/><circle cx="450" cy="170" r="2" fill="white" opacity="0.12"/><circle cx="450" cy="230" r="2" fill="white" opacity="0.12"/><circle cx="550" cy="50" r="2" fill="white" opacity="0.12"/><circle cx="550" cy="110" r="2" fill="white" opacity="0.12"/><circle cx="550" cy="170" r="2" fill="white" opacity="0.12"/><circle cx="550" cy="230" r="2" fill="white" opacity="0.12"/><circle cx="650" cy="50" r="2" fill="white" opacity="0.12"/><circle cx="650" cy="110" r="2" fill="white" opacity="0.12"/><circle cx="650" cy="170" r="2" fill="white" opacity="0.12"/><circle cx="650" cy="230" r="2" fill="white" opacity="0.12"/><circle cx="750" cy="50" r="2" fill="white" opacity="0.12"/><circle cx="750" cy="110" r="2" fill="white" opacity="0.12"/><circle cx="750" cy="170" r="2" fill="white" opacity="0.12"/><circle cx="750" cy="230" r="2" fill="white" opacity="0.12"/>
  <text x="400" y="115" font-size="64" text-anchor="middle" dominant-baseline="middle">📊</text>
  <text x="400" y="195" font-size="22" font-weight="bold" fill="white" text-anchor="middle" font-family="'Segoe UI',Arial,sans-serif" opacity="0.95">Growth Monitoring</text>
  <text x="400" y="231" font-size="13" fill="white" text-anchor="middle" font-family="'Segoe UI',Arial,sans-serif" opacity="0.7">October · Check Crop Health</text>
</svg>